{
    "asset" : {
        "generator" : "Khronos glTF Blender I/O v1.0.5",
        "version" : "2.0"
    },
    "scene" : 0,
    "scenes" : [
        {
            "name" : "Scene",
            "nodes" : [
                0
            ]
        }
    ],
    "nodes" : [
        {
            "mesh" : 0,
            "name" : "path4548",
            "rotation" : [
                0.7071067690849304,
                0,
                0,
                0.7071067690849304
            ],
            "translation" : [
                -0.31345272064208984,
                -0.19267559051513672,
                1.0020959377288818
            ]
        }
    ],
    "materials" : [
        {
            "doubleSided" : true,
            "name" : "SVGMat.001",
            "pbrMetallicRoughness" : {
                "baseColorFactor" : [
                    0.09976277500391006,
                    0.2345421314239502,
                    0,
                    1
                ],
                "metallicFactor" : 0,
                "roughnessFactor" : 0.4000000059604645
            }
        }
    ],
    "meshes" : [
        {
            "name" : "path4548",
            "primitives" : [
                {
                    "attributes" : {
                        "POSITION" : 0,
                        "NORMAL" : 1,
                        "TEXCOORD_0" : 2
                    },
                    "indices" : 3,
                    "material" : 0
                }
            ]
        }
    ],
    "accessors" : [
        {
            "bufferView" : 0,
            "componentType" : 5126,
            "count" : 4880,
            "max" : [
                1.411139965057373,
                0.029999999329447746,
                -0.08867913484573364
            ],
            "min" : [
                8.050003089010715e-06,
                -0.029999999329447746,
                -0.4575994312763214
            ],
            "type" : "VEC3"
        },
        {
            "bufferView" : 1,
            "componentType" : 5126,
            "count" : 4880,
            "type" : "VEC3"
        },
        {
            "bufferView" : 2,
            "componentType" : 5126,
            "count" : 4880,
            "type" : "VEC2"
        },
        {
            "bufferView" : 3,
            "componentType" : 5123,
            "count" : 14376,
            "type" : "SCALAR"
        }
    ],
    "bufferViews" : [
        {
            "buffer" : 0,
            "byteLength" : 58560,
            "byteOffset" : 0
        },
        {
            "buffer" : 0,
            "byteLength" : 58560,
            "byteOffset" : 58560
        },
        {
            "buffer" : 0,
            "byteLength" : 39040,
            "byteOffset" : 117120
        },
        {
            "buffer" : 0,
            "byteLength" : 28752,
            "byteOffset" : 156160
        }
    ],
    "buffers" : [
        {
            "byteLength" : 184912,
            "uri" : "data:application/octet-stream;base64,"
        }
    ]
}
