{
    "asset" : {
        "generator" : "Khronos glTF Blender I/O v1.0.5",
        "version" : "2.0"
    },
    "scene" : 0,
    "scenes" : [
        {
            "name" : "Scene",
            "nodes" : [
                0
            ]
        }
    ],
    "nodes" : [
        {
            "mesh" : 0,
            "name" : "path4548",
            "rotation" : [
                1,
                0,
                0,
                0
            ],
            "translation" : [
                0,
                0.3915260136127472,
                0.45999982953071594
            ]
        }
    ],
    "materials" : [
        {
            "doubleSided" : true,
            "name" : "SVGMat.001",
            "pbrMetallicRoughness" : {
                "baseColorFactor" : [
                    0.09976277500391006,
                    0.2345421314239502,
                    0,
                    1
                ],
                "metallicFactor" : 0,
                "roughnessFactor" : 0.4000000059604645
            }
        }
    ],
    "meshes" : [
        {
            "name" : "path4548",
            "primitives" : [
                {
                    "attributes" : {
                        "POSITION" : 0,
                        "NORMAL" : 1,
                        "TEXCOORD_0" : 2
                    },
                    "indices" : 3,
                    "material" : 0
                }
            ]
        }
    ],
    "accessors" : [
        {
            "bufferView" : 0,
            "componentType" : 5126,
            "count" : 8538,
            "max" : [
                1.411139965057373,
                -0.08867913484573364,
                0.029999999329447746
            ],
            "min" : [
                8.050003089010715e-06,
                -0.4575994312763214,
                -0.029999999329447746
            ],
            "type" : "VEC3"
        },
        {
            "bufferView" : 1,
            "componentType" : 5126,
            "count" : 8538,
            "type" : "VEC3"
        },
        {
            "bufferView" : 2,
            "componentType" : 5126,
            "count" : 8538,
            "type" : "VEC2"
        },
        {
            "bufferView" : 3,
            "componentType" : 5123,
            "count" : 14376,
            "type" : "SCALAR"
        }
    ],
    "bufferViews" : [
        {
            "buffer" : 0,
            "byteLength" : 102456,
            "byteOffset" : 0
        },
        {
            "buffer" : 0,
            "byteLength" : 102456,
            "byteOffset" : 102456
        },
        {
            "buffer" : 0,
            "byteLength" : 68304,
            "byteOffset" : 204912
        },
        {
            "buffer" : 0,
            "byteLength" : 28752,
            "byteOffset" : 273216
        }
    ],
    "buffers" : [
        {
            "byteLength" : 301968,
            "uri" : "data:application/octet-stream;base64,"
        }
    ]
}
